<svg height="500" viewBox="0 0 500 500" width="500" xmlns="http://www.w3.org/2000/svg"><g clip-rule="evenodd" fill-rule="evenodd"><path d="m376 91c2.383 3.951 6.457 6.209 10 9 28.819 30.847 50.983 68.351 57 122 .484 9.182 1.491 17.842 1 28-2.28 1.387-.373 6.961-1 10-5.025 48.308-24.109 82.557-48 112-4.36 2.307-5.935 7.398-10 10-31.678 31.656-73.486 53.181-132 58-2.378-1.66-11.622-1.66-14 0-.334 0-.666 0-1 0s-.666 0-1 0c-1.387-2.28-6.961-.373-10-1-46.115-5.218-80.752-21.915-109-45-2.423-3.244-6.097-5.236-9-8-3.248-4.085-6.915-7.752-11-11-26.422-29.911-45.961-66.706-51-118-.627-3.039 1.28-8.613-1-10 0-3.333 0-6.666 0-10 2.301-2.367.357-8.975 1-13 5.018-46.648 21.832-81.502 45-110 3.244-2.423 5.236-6.097 8-9 4.085-3.248 7.752-6.915 11-11 2.526-2.474 6.066-3.934 8-7 28.459-22.207 62.316-39.017 108-44 4.1.1 8.197.197 11-1 2.378 1.66 11.622 1.66 14 0h1c1.387 2.28 6.961.373 10 1 48.711 4.956 83.291 24.042 113 48zm-129-33c-5.297-1.15-12.012-.476-21 1-43.063 3.937-73.393 20.607-99 42-9.164 5.503-16.225 13.109-22 22-21.547 26.119-38.605 56.729-42 101-2.28 1.387-.373 6.961-1 10-1.661 2.707-1.661 12.294 0 15 .619 2.714-1.27 7.937 1 9 3.827 46.506 22.221 78.446 46 105v1c5.388 6.279 11.117 12.217 18 17 29.588 24.411 64.816 43.184 119 43 4.796 2.433 13.675.363 18-1 41.962-3.704 71.616-19.718 97-40 8.888-6.112 16.99-13.01 23-22 23.213-29.454 43.001-62.332 44-114 1.659-2.051 1.659-10.949 0-13-.97-36.211-13.019-69.286-29-94-27.658-42.77-88.227-83.902-152-82z" fill="#2980b9"/><path d="m247 58c63.773-1.902 124.342 39.23 152 82 15.981 24.714 28.03 57.789 29 94v13c-.999 51.668-20.787 84.546-44 114-2.092 1.241-3.759 2.908-5 5-3.752 2.915-7.085 6.248-10 10-2.615 2.385-6.31 3.69-8 7-25.384 20.282-55.038 36.296-97 40-7.025-.691-10.975 1.691-18 1-54.184.184-89.412-18.589-119-43-.903-1.763-2.236-3.097-4-4-4.249-5.084-8.916-9.751-14-14-23.779-26.554-42.173-58.494-46-105 0-11.333 0-22.666 0-34 3.395-44.271 20.453-74.881 42-101 7-7.667 14.143-15.19 22-22 25.607-21.393 55.938-38.063 99-42 6.677-.656 15.986 1.32 21-1zm-4 16c-3.341-1.967-12.807-1.503-15 1-10.882.118-18.178 3.822-28 5 7.016 14.984 18.756 25.244 28 38 18.352-14.315 36.604-28.73 60-38-12.891-4.11-28.002-5.998-45-6zm-25 56c0-.667 0-1.333 0-2-13.771-11.895-21.887-29.447-35-42-19.243 7.09-34.11 18.557-49 30-5.174 4.16-9.84 8.826-14 14-5.068 7.265-11.885 12.781-15 22 22.105 12.895 44.492 25.508 67 38 11.574-16.76 22.553-34.113 36-49 4.234-2.766 6.543-7.457 10-11zm88-38c-28.625 6.042-48.522 20.811-66 38 13.721 10.279 25.855 22.144 42 30 11.831-23.503 25.653-45.013 38-68-1 0-2 0-3 0-1.4-1.657-9.6-1.657-11 0zm41 44c-1.964-14.37-4.588-28.079-14-35-11.164 23.835-25.754 44.246-37 68 14.918 6.748 29.415 13.918 47 18 2.306-7.36 3.158-16.175 4-25 2.288-1.711.367-7.633 1-11 0-.333 0-.667 0-1-.645-4.355 1.305-11.304-1-14zm25-4c-3.895-4.772-6.904-10.429-13-13 .224.776.027 1.973 1 2 .224.776.027 1.973 1 2-.066 5.067 1.719 8.281 1 14v22c.429 12.762-2.464 22.203-4 33 13.372 1.294 25.216 4.118 39 5 .623 1.84 12.987 1.77 9-1-7.242-25.424-19.121-46.212-34-64zm-142 8c-17.35 16.984-32.219 36.448-44 59 20.164 8.503 35.984 21.35 56 30 10.874-17.793 21.557-35.776 31-55-10.635-8.698-22.871-15.795-33-25-2.383-3.951-6.457-6.209-10-9zm-127 131c13.215-.882 20.567 4.1 33 4 6.033-26.967 18.038-47.962 28-71-23.844-11.823-44.994-26.34-69-38-11.887 26.815-21.167 63.364-15 102-1.008 3.008 2.229 1.772 4 2 4.35 2.316 12.988.346 19 1zm186-88c-10.564 14.438-22.005 36.661-32 55 18.351 10.649 36.099 21.901 56 31 9.634-21.365 20.666-41.334 26-67-18.708-4.292-33.093-12.907-50-19zm99 28c-13.144.144-23.045-2.956-34-5-5.923 27.41-18.265 48.402-28 72 23.799 11.201 43.791 26.209 68 37 10.596-18.071 16.399-40.934 18-68 1.661-2.706 1.661-12.293 0-15-.188-6.813-2.007-11.993-2-19-4.31-3.69-14.666-1.334-22-2zm-210 2c-11.484 19.849-21.303 41.364-27 67 19.172 4.827 35.524 12.476 52 20 9.381-19.952 21.545-37.122 31-57-20.213-8.455-36.209-21.124-56-30zm91 120c12.049-16.284 25.5-31.166 35-50-19.566-9.434-37.139-20.861-56-31-9.844 19.489-21.947 36.72-31 57 14.266 8.401 27.701 17.633 39 29 1.286 1.714 2.067 3.933 5 4 3.648-2.019 5.41-5.924 8-9zm-185-48c7.064 25.937 19.604 46.396 34 65 2.017 4.161 11.732 14.896 12 11-1.14-4.86-2.492-9.507-2-16 0-8.667 0-17.333 0-26-.037-11.037 2.152-19.848 4-29-12.549-1.452-24.047-3.952-37-5-1.4-1.657-9.6-1.657-11 0zm190 65c-.333 0-.667 0-1 0-.221.779-.837 1.163-2 1 .2 5.134 4.373 6.293 7 9 11.499 10.167 17.564 25.769 29 36 18.061-6.939 33.033-16.967 47-28 7.554-5.112 13.549-11.784 19-19 3.839-7.161 10.844-11.156 13-20-24.273-10.727-44.594-25.406-68-37-13.885 20.115-27.474 40.526-44 58zm-131-4c2.27 14.064 4.323 28.344 14 35 11.314-23.687 26-44 37-68-14.493-7.84-30.857-13.81-48-19-.15 8.85-2.189 15.811-3 24-2.308 3.025-.353 10.314-1 15v1c.639 3.695-1.295 9.962 1 12zm99-1c-11.561-7.439-20.283-17.717-34-23-11.518 23.149-25.059 44.274-37 67 34.5 3.126 53.791-17.512 74-32 1.578-1.755 4.592-2.075 5-5-1.69-3.31-5.385-4.615-8-7zm27 27c-2.825-3.175-4.267-7.733-9-9-2.092 1.241-3.759 2.908-5 5-14.463 14.537-33.077 24.923-53 34 7.469 2.53 16.643 3.357 25 5 3.893 2.128 14.142 3.164 19 1 16.771.104 29.844-3.489 44-6-5.396-11.604-13.515-20.485-21-30z" fill="#fff"/><g fill="#2980b9"><path d="m347 162c-.842 8.825-1.694 17.64-4 25-17.585-4.082-32.082-11.252-47-18 11.246-23.754 25.836-44.165 37-68 9.412 6.921 12.036 20.63 14 35 .645 4.355-1.305 11.304 1 14v1c-2.288 1.711-.367 7.633-1 11z"/><path d="m368 128c.903 1.763 2.237 3.097 4 4 14.879 17.788 26.758 38.576 34 64v1c-3 0-6 0-9 0-13.784-.882-25.628-3.706-39-5 1.536-10.797 4.429-20.238 4-33 1.664-5.02 1.664-16.98 0-22 .719-5.719-1.066-8.933-1-14 1.912-1.846 4.246 4.371 7 5z"/><path d="m230 140c2.549 3.785 6.811 5.856 10 9 10.129 9.205 22.365 16.302 33 25-9.443 19.224-20.126 37.207-31 55-20.016-8.65-35.836-21.497-56-30 11.781-22.552 26.65-42.016 44-59z"/><path d="m80 268c-6.167-38.636 3.113-75.185 15-102 24.006 11.66 45.156 26.177 69 38-9.962 23.038-21.967 44.033-28 71-12.433.1-19.785-4.882-33-4-2.961-1.743-12.275-1.211-14-1-1.115-2.552-7.734.401-9-2z"/><path d="m234 243c-9.455 19.878-21.619 37.048-31 57-16.476-7.524-32.828-15.173-52-20 5.697-25.636 15.516-47.151 27-67 19.791 8.876 35.787 21.545 56 30z"/><path d="m373 349c-6.544 6.123-12.207 13.126-19 19-13.967 11.033-28.939 21.061-47 28-11.436-10.231-17.501-25.833-29-36-1.271-3.396-5.546-3.787-6-8 1.122-.212 1.557-1.109 2-2 16.526-17.474 30.115-37.885 44-58 23.406 11.594 43.727 26.273 68 37-2.156 8.844-9.161 12.839-13 20z"/><path d="m255 368c2.614-.719 3.065-3.602 6-4 3.507 1.827 4.186 6.48 8 8 7.485 9.515 15.604 18.396 21 30-14.156 2.511-27.229 6.104-44 6-1.078-1.655-8.922-1.655-10 0-2.492-.841-5.357-1.309-9-1-8.357-1.643-17.531-2.47-25-5 19.923-9.077 38.537-19.463 53-34z"/><path d="m228 75c5.24-.093 9.003-1.664 15-1 16.998.002 32.109 1.89 45 6-23.396 9.27-41.648 23.685-60 38-9.244-12.756-20.984-23.016-28-38 9.822-1.178 17.118-4.882 28-5z"/><path d="m134 116c14.89-11.443 29.757-22.91 49-30 13.113 12.553 21.229 30.105 35 42v2c-4.313 2.687-6.701 7.298-10 11-13.447 14.887-24.426 32.24-36 49-22.508-12.492-44.895-25.105-67-38 3.115-9.219 9.932-14.735 15-22 5.084-4.249 9.751-8.916 14-14z"/><path d="m306 92h11 3c-12.347 22.987-26.169 44.497-38 68-16.145-7.856-28.279-19.721-42-30 17.478-17.189 37.375-31.958 66-38z"/><path d="m339 202c-5.334 25.666-16.366 45.635-26 67-19.901-9.099-37.649-20.351-56-31 9.995-18.339 21.436-40.563 32-55 16.907 6.093 31.292 14.708 50 19z"/><path d="m412 247c-1.601 27.066-7.404 49.929-18 68-24.209-10.791-44.201-25.799-68-37 9.735-23.598 22.077-44.59 28-72 10.955 2.044 20.856 5.144 34 5 6.242 1.758 14.988 1.012 22 2-.007 7.007 1.813 12.188 2 19z"/><path d="m256 338c-11.299-11.367-24.734-20.599-39-29 9.053-20.28 21.156-37.511 31-57 18.861 10.139 36.434 21.566 56 31-9.5 18.834-22.951 33.716-35 50-4.112 2.718-7.591 12.235-13 5z"/><path d="m84 285h11c12.953 1.048 24.451 3.548 37 5-1.848 9.152-4.037 17.963-4 29-1.664 6.348-1.664 19.652 0 26-.492 6.493.86 11.14 2 16-4.594-3.072-7.406-7.928-12-11-14.396-18.604-26.936-39.063-34-65z"/><path d="m143 318c.811-8.189 2.85-15.15 3-24 17.143 5.19 33.507 11.16 48 19-11 24-25.686 44.313-37 68-9.677-6.656-11.73-20.936-14-35-.639-3.695 1.295-9.962-1-12 0-.333 0-.667 0-1 2.308-3.025.353-10.314 1-15z"/><path d="m245 357c-20.209 14.488-39.5 35.126-74 32 11.941-22.726 25.482-43.851 37-67 13.717 5.283 22.439 15.561 34 23 1.314 3.353 5.179 4.154 7 7-.677 2.323-3.323 2.677-4 5z"/></g></g></svg>